<svg width="35" height="35" viewBox="0 0 35 35" fill="none" xmlns="http://www.w3.org/2000/svg">
<path fill-rule="evenodd" clip-rule="evenodd" d="M17.5045 1.89577e-05C21.5532 0.00106092 25.4762 1.40587 28.6052 3.97509C31.7342 6.5443 33.8756 10.119 34.6645 14.09C35.4534 18.0611 34.841 22.1828 32.9317 25.753C31.0224 29.3231 27.9342 32.1208 24.1934 33.6694C20.4526 35.2179 16.2906 35.4215 12.4165 34.2454C8.54243 33.0693 5.19599 30.5863 2.94735 27.2196C0.698717 23.8528 -0.312985 19.8105 0.0846232 15.7814C0.482232 11.7523 2.26455 7.98571 5.1279 5.12339C6.75169 3.49624 8.681 2.20598 10.805 1.32674C12.929 0.447506 15.2057 -0.00336949 17.5045 1.89577e-05ZM17.5045 18.7003C20.3367 18.7007 23.0679 19.753 25.1681 21.6531C27.2684 23.5532 28.588 26.1656 28.8711 28.9837L28.9296 28.9251C31.1878 26.6657 32.7254 23.7875 33.348 20.6543C33.9706 17.5211 33.6502 14.2736 32.4273 11.3225C31.2045 8.37139 29.1341 5.8491 26.4779 4.07454C23.8217 2.29997 20.6989 1.35282 17.5045 1.35282C14.3101 1.35282 11.1873 2.29997 8.53113 4.07454C5.87493 5.8491 3.80452 8.37139 2.58166 11.3225C1.35881 14.2736 1.03842 17.5211 1.661 20.6543C2.28358 23.7875 3.82117 26.6657 6.07939 28.9251L6.13794 28.9837C6.42098 26.1656 7.74063 23.5532 9.84088 21.6531C11.9411 19.753 14.6723 18.7007 17.5045 18.7003ZM17.5045 4.42808C16.2495 4.42808 15.0226 4.80025 13.979 5.49752C12.9355 6.19479 12.1222 7.18585 11.6419 8.34537C11.1616 9.50488 11.0359 10.7808 11.2808 12.0117C11.5256 13.2427 12.13 14.3734 13.0174 15.2608C13.9049 16.1483 15.0356 16.7526 16.2665 16.9975C17.4975 17.2423 18.7734 17.1167 19.9329 16.6364C21.0924 16.1561 22.0835 15.3428 22.7807 14.2992C23.478 13.2557 23.8502 12.0288 23.8502 10.7737C23.855 9.93735 23.6944 9.10825 23.3777 8.33413C23.0609 7.56 22.5943 6.85614 22.0046 6.26301C21.4148 5.66988 20.7137 5.19918 19.9414 4.878C19.1691 4.55681 18.3409 4.39147 17.5045 4.39148V4.42808Z" fill="#19233C"/>
</svg>
