<svg width="150" height="28" viewBox="0 0 150 28" fill="none" xmlns="http://www.w3.org/2000/svg">
<path d="M146.312 18.024C146.309 18.2348 146.244 18.4401 146.125 18.614C146.006 18.788 145.838 18.9228 145.643 19.0016C145.447 19.0803 145.232 19.0995 145.026 19.0567C144.82 19.0139 144.63 18.911 144.482 18.7609C144.334 18.6109 144.234 18.4204 144.194 18.2134C144.154 18.0065 144.176 17.7922 144.257 17.5977C144.338 17.4032 144.475 17.2371 144.651 17.1202C144.826 17.0034 145.032 16.941 145.243 16.941C145.386 16.9372 145.528 16.9627 145.66 17.016C145.792 17.0692 145.912 17.1491 146.012 17.2506C146.113 17.3521 146.191 17.4732 146.243 17.6062C146.294 17.7392 146.318 17.8814 146.312 18.024ZM146.5 18.024C146.5 17.7757 146.426 17.533 146.288 17.3266C146.15 17.1202 145.954 16.9593 145.724 16.8644C145.495 16.7695 145.242 16.7447 144.999 16.7932C144.755 16.8417 144.532 16.9613 144.356 17.1369C144.18 17.3125 144.061 17.5362 144.012 17.7797C143.964 18.0233 143.989 18.2757 144.083 18.5052C144.178 18.7346 144.339 18.9308 144.546 19.0689C144.752 19.207 144.995 19.2808 145.243 19.281C145.408 19.281 145.572 19.2485 145.724 19.1853C145.877 19.1221 146.015 19.0295 146.132 18.9128C146.249 18.7961 146.341 18.6575 146.404 18.505C146.468 18.3525 146.5 18.1891 146.5 18.024Z" fill="white"/>
<path d="M145.475 17.731C145.475 17.916 145.321 17.931 145.175 17.931H145.044V17.519H145.238C145.414 17.519 145.478 17.604 145.478 17.726L145.475 17.731ZM145.79 18.66L145.49 18.234C145.449 18.1687 145.397 18.1103 145.338 18.061C145.557 18.033 145.684 17.914 145.684 17.726C145.685 17.6747 145.674 17.6239 145.654 17.5768C145.634 17.5297 145.604 17.4874 145.566 17.4527C145.528 17.418 145.484 17.3916 145.435 17.3753C145.387 17.3589 145.335 17.3531 145.284 17.358H144.859V18.658H145.046V18.075C145.146 18.075 145.187 18.107 145.246 18.202L145.561 18.658L145.79 18.66ZM38.965 8.20898L36.584 13.767H41.367L38.965 8.20898ZM46.248 19.283H43.669L42.259 15.931H35.69L34.261 19.283H31.761L37.874 5.29098H40.134L46.248 19.283ZM68.772 19.284H66.31V7.65298H61.9V5.38998H73.376L72.43 7.65298H68.772V19.284ZM115.51 7.65298H108.07V11.186H112.835V13.372H108.07V17.064H115.514V19.283H105.614V5.38998H115.514L115.51 7.65298ZM132.955 19.284H130.627V5.39098H132.955V19.284ZM123.056 7.39998C121.637 7.39998 120.43 7.82898 120.424 8.77098C120.417 9.87098 121.109 10.257 123.724 11.107C126.612 12.056 128.146 13.022 128.13 15.371C128.115 18.019 126.068 19.529 123.08 19.529C121.082 19.5687 119.139 18.8717 117.622 17.571L118.522 15.392C119.795 16.5405 121.43 17.2076 123.143 17.278C124.643 17.286 125.717 16.554 125.717 15.47C125.717 14.564 125.193 13.961 122.658 13.158C119.751 12.205 117.995 11.211 118.009 8.84398C118.023 6.47698 120.235 5.14998 123.009 5.16298C124.614 5.12064 126.2 5.52463 127.589 6.32998L126.716 8.31198C125.593 7.70098 124.333 7.38705 123.055 7.39998H123.056ZM135.955 12.116L142.175 5.38998H139.2L132.959 12.116L139.817 19.286H142.837L135.955 12.116ZM80.9 17.281C80.2623 17.2766 79.632 17.1442 79.0465 16.8915C78.461 16.6389 77.9323 16.2711 77.4916 15.8102C77.051 15.3492 76.7075 14.8044 76.4815 14.2081C76.2555 13.6118 76.1516 12.9762 76.176 12.339C76.1481 11.7012 76.2497 11.0644 76.4746 10.4669C76.6995 9.86945 77.043 9.3237 77.4844 8.86255C77.9259 8.4014 78.4561 8.03441 79.0432 7.7837C79.6303 7.53298 80.2621 7.40372 80.9005 7.40372C81.5389 7.40372 82.1706 7.53298 82.7577 7.7837C83.3448 8.03441 83.8751 8.4014 84.3165 8.86255C84.758 9.3237 85.1015 9.86945 85.3264 10.4669C85.5513 11.0644 85.6528 11.7012 85.625 12.339C85.6492 12.9762 85.5452 13.6119 85.3191 14.2082C85.093 14.8045 84.7494 15.3493 84.3087 15.8102C83.868 16.2712 83.3391 16.6389 82.7536 16.8915C82.168 17.1442 81.5377 17.2766 80.9 17.281ZM80.9 5.15198C79.4788 5.15198 78.0895 5.5734 76.9078 6.36297C75.7261 7.15253 74.805 8.27477 74.2611 9.58778C73.7172 10.9008 73.5748 12.3456 73.852 13.7395C74.1292 15.1334 74.8135 16.4139 75.8184 17.4189C76.8232 18.4239 78.1036 19.1084 79.4975 19.3858C80.8913 19.6632 82.3362 19.521 83.6493 18.9773C84.9623 18.4335 86.0847 17.5126 86.8744 16.331C87.6642 15.1494 88.0858 13.7602 88.086 12.339C88.0862 11.3952 87.9006 10.4606 87.5395 9.58855C87.1785 8.71653 86.6492 7.92418 85.9819 7.25677C85.3146 6.58935 84.5223 6.05995 83.6503 5.69881C82.7784 5.33766 81.8438 5.15185 80.9 5.15198ZM95.929 17.061H93.122V7.65498H95.94C96.5619 7.62821 97.1826 7.73016 97.7633 7.95443C98.3439 8.1787 98.872 8.52046 99.3145 8.9583C99.7569 9.39615 100.104 9.92065 100.334 10.4989C100.565 11.0772 100.673 11.6968 100.653 12.319C100.673 12.9457 100.565 13.57 100.335 14.1534C100.106 14.7368 99.7586 15.2669 99.316 15.7112C98.8735 16.1554 98.3447 16.5043 97.7622 16.7365C97.1797 16.9686 96.5558 17.0791 95.929 17.061ZM95.929 5.39098H90.658V19.285H95.929C96.861 19.3166 97.7898 19.1604 98.6602 18.8255C99.5305 18.4907 100.325 17.9841 100.995 17.336C101.666 16.6879 102.199 15.9115 102.563 15.053C102.927 14.1945 103.115 13.2715 103.115 12.339C103.115 11.4064 102.927 10.4834 102.563 9.62496C102.199 8.76647 101.666 7.99005 100.995 7.34193C100.325 6.69381 99.5305 6.18725 98.6602 5.85242C97.7898 5.51759 96.861 5.36134 95.929 5.39298V5.39098ZM59.221 13.128C59.221 17.27 56.79 19.504 53.266 19.504C49.742 19.504 47.312 17.27 47.312 13.128V5.39098H49.773V13.421C49.773 15.851 51.2 17.278 53.266 17.278C55.332 17.278 56.766 15.851 56.766 13.421V5.39098H59.226L59.221 13.128Z" fill="white"/>
<path d="M10.1459 1.49302C12.1909 1.49302 14.2699 1.48702 16.3459 1.49302C16.6043 1.49814 16.854 1.58729 17.0571 1.74697C17.2603 1.90666 17.4059 2.12819 17.4719 2.37802C20.1499 8.73936 22.8356 15.097 25.5289 21.451C26.0529 22.691 26.5709 23.933 27.1289 25.261C24.9359 25.261 22.8379 25.274 20.7409 25.236C20.5679 25.236 20.3359 24.908 20.2409 24.686C18.4043 20.374 16.5776 16.0577 14.7609 11.737C13.5269 8.81402 12.3099 5.88502 11.0549 2.97102C10.7887 2.45668 10.4849 1.96267 10.1459 1.49302ZM5.88594 18.416C5.25394 18.416 4.62094 18.435 3.98594 18.416C2.72694 18.368 2.19594 17.616 2.66394 16.438C3.49194 14.36 4.37494 12.303 5.23794 10.238C6.23094 7.87102 7.19994 5.50002 8.23594 3.15302C8.32492 2.93695 8.45596 2.74071 8.62146 2.57574C8.78695 2.41076 8.98359 2.28033 9.19994 2.19202C9.75794 2.06002 10.0729 2.60502 10.2829 3.10202C11.0089 4.82002 11.7429 6.53402 12.4469 8.26102C12.5232 8.49382 12.5144 8.74614 12.4219 8.97302C11.1819 11.94 9.91294 14.896 8.67994 17.866C8.62704 18.055 8.50536 18.2174 8.33881 18.3212C8.17227 18.425 7.97291 18.4628 7.77994 18.427C7.14994 18.392 6.51594 18.418 5.87994 18.418L5.88594 18.416ZM2.63394 19.156H17.4169L17.4749 19.384C16.7389 19.842 16.0049 20.303 15.2669 20.759C13.2999 21.973 11.3499 23.211 9.35994 24.382C8.70695 24.7398 8.01285 25.0169 7.29294 25.207C6.98169 25.3271 6.63733 25.3296 6.32438 25.214C6.01144 25.0984 5.75138 24.8726 5.59294 24.579C4.57994 22.768 3.59994 20.939 2.63394 19.156Z" fill="white"/>
</svg>
