<svg width="73" height="22" viewBox="0 0 73 22" fill="none" xmlns="http://www.w3.org/2000/svg">
<path d="M34.4341 0.0079813C34.4341 0.0079813 33.6231 0.0249814 33.1531 0.0169814C33.1341 0.216981 32.9071 2.00198 32.7121 3.43998C32.4881 4.77098 30.7121 14.64 30.1121 17.597C29.9541 18.489 29.4641 21.01 29.4181 21.262C28.8531 21.329 28.1851 21.392 27.7491 21.409C27.6911 21.409 27.5931 21.43 27.5491 21.43V21.942C27.6031 21.942 27.8851 21.961 28.0851 21.953C28.5651 21.938 29.9261 21.873 30.1851 21.873C31.1641 21.873 31.8171 21.938 32.7231 21.956C32.7351 21.956 32.9841 21.956 33.0931 21.941V21.424H32.8591C32.2987 21.409 31.7393 21.3659 31.1831 21.295C31.2391 20.957 32.0721 15.845 32.4721 13.795C33.2321 10.011 33.7581 7.32898 33.7581 7.32898L33.8991 7.66198L39.8991 21.973L40.9991 21.979C40.9991 21.979 41.6251 20.429 42.3681 18.691C42.3871 18.65 42.4411 18.525 42.5171 18.348C43.2961 16.548 47.1601 7.38298 47.1601 7.38298C47.1601 7.38298 47.1971 7.54798 47.2601 7.84298C47.6281 9.64298 48.8721 16.109 49.1381 17.67C49.2621 18.47 49.3791 19.288 49.4471 19.765C49.5471 20.441 49.6131 21.102 49.6131 21.292C49.4911 21.298 48.2681 21.408 47.8061 21.428C47.7395 21.4246 47.6728 21.4246 47.6061 21.428V21.947C47.7721 21.947 47.9321 21.954 48.0931 21.947C49.0381 21.929 49.9471 21.855 50.8931 21.855C51.9551 21.855 53.6771 21.949 54.7811 21.955C54.9051 21.955 55.1271 21.944 55.1271 21.944V21.418C55.0641 21.418 54.7861 21.404 54.6841 21.396C54.1901 21.357 53.3561 21.28 53.1451 21.266C53.1451 21.266 53.0091 20.51 52.8281 19.637C52.1011 16.147 50.0481 5.53098 49.7341 2.91898C49.6271 2.01898 49.3221 0.00598145 49.3221 0.00598145H48.0871L46.8811 3.46598C46.4547 4.67175 46.0107 5.87121 45.5491 7.06398C43.5421 12.339 41.2871 17.257 41.2871 17.257C41.2871 17.257 36.5071 5.83998 36.2541 5.17998C36.0011 4.51998 34.4341 0.0079813 34.4341 0.0079813ZM0.0461328 0.0079813L0.0561328 1.21398L0.0361328 4.15198L0.354133 4.14298L0.387133 1.52998C0.387133 1.52998 2.13213 1.51998 2.35813 1.51998H5.61313L7.71313 1.52998V21.273L7.66913 21.279C7.38913 21.301 6.31313 21.366 5.87713 21.379C5.82019 21.3825 5.76308 21.3825 5.70613 21.379V21.911C5.78513 21.911 5.99813 21.92 6.02613 21.919C7.06013 21.906 8.45913 21.819 9.45013 21.819C10.4581 21.819 11.8761 21.919 12.7501 21.928C12.8371 21.928 12.9401 21.92 13.0241 21.92V21.42H12.9151C12.6351 21.42 11.0891 21.32 10.9291 21.298C10.9221 21.054 10.8941 19.877 10.8941 19.851L10.9001 1.52098H16.6721L18.0651 1.53998C18.0741 1.63998 18.1451 2.96298 18.1431 2.99898C18.1431 3.09898 18.1951 4.08098 18.1931 4.32398H18.5231L18.5001 1.35198L18.5221 0.0269814C17.2961 0.0599814 14.1711 0.102981 9.32213 0.0999813C5.16313 0.0999813 1.15513 0.0619814 0.0461328 0.0129814V0.0079813ZM19.4701 0.0079813L19.4751 0.528981C19.6401 0.537981 20.6081 0.628981 20.8431 0.634981C21.0311 0.657981 21.2931 0.681981 21.4801 0.699981C21.4801 0.866981 21.4801 2.01698 21.4861 2.46998C21.5171 6.76998 21.4861 16.278 21.4781 19.641C21.4781 20.614 21.4711 21.241 21.4711 21.241C21.2485 21.2806 21.0232 21.3034 20.7971 21.309C20.5501 21.326 19.6661 21.4 19.4691 21.409V21.93C19.5511 21.93 19.7011 21.947 19.7861 21.947C20.7861 21.947 22.1781 21.823 23.2041 21.824C24.2301 21.825 25.6241 21.951 26.4401 21.951C26.5111 21.951 26.6791 21.933 26.7491 21.934V21.414H26.6781C26.6461 21.407 25.5941 21.363 25.3381 21.336C25.0967 21.322 24.856 21.2959 24.6171 21.258V19.738C24.6171 16.345 24.6291 6.26898 24.6321 2.41698V0.742981C24.8591 0.728981 25.7841 0.631981 26.1151 0.602981L26.7481 0.564981V0.0219815C25.6151 0.0219815 24.1171 0.109981 23.0111 0.108981C21.8551 0.108981 20.4311 0.0179814 19.4711 0.0169814L19.4701 0.0079813ZM71.8871 0.0269814H71.5471C70.7891 0.0269814 68.8471 0.0449813 66.5831 0.0569813C65.1901 0.0649813 64.1011 0.0759814 62.6661 0.0759814C61.6601 0.0879814 60.2521 0.126981 59.3831 0.124981C57.9951 0.124981 56.8621 0.0369815 56.2461 0.0349815C55.9541 0.0349815 55.7901 0.0449815 55.7101 0.0349815V0.548981C55.7964 0.562801 55.8838 0.569158 55.9711 0.567981C56.3191 0.590981 56.9711 0.643981 57.3031 0.687981C57.3691 0.699981 57.4811 0.718981 57.7931 0.752981C57.7931 0.867981 57.8081 2.17198 57.8051 2.95298L57.7981 19.874C57.7981 19.9 57.7611 21.174 57.7611 21.274C57.1088 21.3643 56.4516 21.4157 55.7931 21.428H55.6871V21.947C55.7381 21.947 55.9741 21.956 56.1081 21.956C56.6901 21.956 58.1911 21.863 59.7231 21.862C60.7971 21.862 61.9791 21.901 63.1751 21.918C64.6491 21.938 66.1391 21.939 67.4751 21.958C69.6841 21.989 71.4751 21.992 72.0571 21.993C72.0571 21.993 72.1281 17.893 72.1281 17.565H71.8091C71.8091 17.914 71.6801 19.212 71.6751 19.265C71.6341 19.754 71.5901 20.265 71.5561 20.518C71.5561 20.518 71.4001 20.53 71.3251 20.529C70.9621 20.522 69.8031 20.564 69.7781 20.564H64.6071L60.9751 20.503L60.9511 19.496V11.684C61.5991 11.662 62.5881 11.628 63.1891 11.629C63.7011 11.629 64.9061 11.601 65.5811 11.603C67.2201 11.603 68.6811 11.616 68.7941 11.62C69.0641 11.628 69.5661 11.644 69.7561 11.656C69.7631 11.725 69.7851 11.833 69.7881 11.863C69.8881 12.463 69.9391 12.877 70.0051 13.463C70.0151 13.516 70.0201 13.563 70.0271 13.615H70.4001C70.4001 13.615 70.4101 13.405 70.4001 13.274C70.3931 12.813 70.3631 11.893 70.3631 10.874C70.3631 10.167 70.4021 9.08698 70.4071 8.56798C70.4071 8.42698 70.3921 8.32798 70.3921 8.28698L70.0511 8.29398C70.047 8.38714 70.0373 8.47997 70.0221 8.57198C69.9931 8.95898 69.8831 9.45398 69.7951 9.97198C69.778 10.023 69.7643 10.0751 69.7541 10.128C69.3547 10.1595 68.9546 10.1825 68.5541 10.197L66.9341 10.24L60.9521 10.218L60.9621 1.59298C60.9621 1.59298 61.7221 1.56598 61.9341 1.56698C62.7961 1.56698 64.1991 1.55898 65.6341 1.56098C67.7261 1.56098 69.7581 1.57698 69.7631 1.57998C69.7681 1.58298 70.3941 1.59498 70.4061 1.60498C70.4181 1.61498 71.1951 1.63998 71.3851 1.64598C71.3957 1.69385 71.4037 1.74225 71.4091 1.79098C71.4941 2.69998 71.5651 3.77998 71.5971 4.16298V4.31598H71.9161C71.9161 3.75598 71.8871 2.04098 71.8821 0.949981V0.0319815L71.8871 0.0269814Z" fill="white"/>
</svg>
