<svg width="100" height="29" viewBox="0 0 100 29" fill="none" xmlns="http://www.w3.org/2000/svg">
<path d="M48.3291 22.442H45.2581C45.2523 22.4427 45.2465 22.442 45.2411 22.4399C45.2357 22.4378 45.2309 22.4344 45.2271 22.43L42.5811 19.2L39.9341 22.432C39.9281 22.442 39.9191 22.444 39.9051 22.444H37.4451C37.4374 22.444 37.4298 22.4419 37.4233 22.4378C37.4167 22.4337 37.4115 22.4279 37.4081 22.421C37.4055 22.4145 37.4047 22.4075 37.4058 22.4007C37.4068 22.3938 37.4097 22.3874 37.4141 22.382L41.3141 17.595L37.4621 12.85C37.4574 12.8434 37.4543 12.8358 37.453 12.8278C37.4518 12.8198 37.4525 12.8117 37.4551 12.804C37.4621 12.796 37.4771 12.782 37.4891 12.782H40.5621C40.5682 12.7827 40.574 12.7849 40.579 12.7884C40.5841 12.7919 40.5882 12.7966 40.5911 12.802L42.9131 15.679L45.2751 12.8C45.2777 12.7942 45.2819 12.7893 45.2872 12.7859C45.2925 12.7826 45.2988 12.7808 45.3051 12.781H47.8051C47.8121 12.782 47.8189 12.7845 47.8249 12.7883C47.8309 12.7921 47.8361 12.7971 47.8401 12.803C47.8434 12.8105 47.8445 12.8187 47.8435 12.8268C47.8424 12.8349 47.8392 12.8426 47.8341 12.849L44.1781 17.24L48.3551 22.378C48.361 22.3824 48.365 22.3889 48.3663 22.3961C48.3676 22.4033 48.3661 22.4108 48.3621 22.417C48.3595 22.4237 48.355 22.4294 48.3491 22.4335C48.3432 22.4376 48.3362 22.4399 48.3291 22.44" fill="white"/>
<path d="M64.9518 14.485C64.3183 14.4658 63.7013 14.6888 63.2265 15.1088C62.7518 15.5287 62.455 16.1139 62.3968 16.745H67.0238V16.653C67.0327 16.3773 66.9873 16.1026 66.8901 15.8445C66.7928 15.5865 66.6457 15.3501 66.4571 15.1488C66.2685 14.9476 66.0421 14.7855 65.7909 14.6718C65.5396 14.558 65.2684 14.4949 64.9928 14.486H64.9518V14.485ZM69.4098 18.222C69.4061 18.2274 69.4012 18.232 69.3954 18.2352C69.3897 18.2385 69.3834 18.2405 69.3768 18.241H62.3468C62.3661 18.945 62.6643 19.6124 63.1757 20.0966C63.6871 20.5808 64.3698 20.8421 65.0738 20.823C65.1418 20.823 65.2098 20.817 65.2738 20.81C66.6136 20.7259 67.9115 20.3101 69.0508 19.6C69.0552 19.5976 69.0601 19.596 69.0652 19.5955C69.0702 19.595 69.0753 19.5955 69.0802 19.597C69.085 19.5985 69.0895 19.601 69.0934 19.6042C69.0973 19.6075 69.1005 19.6115 69.1028 19.616C69.1069 19.6229 69.1087 19.631 69.1078 19.639V21.8C69.1072 21.807 69.1048 21.8138 69.1007 21.8196C69.0967 21.8254 69.0912 21.83 69.0848 21.833C67.7847 22.4365 66.3834 22.7923 64.9528 22.882C64.2886 22.9036 63.6267 22.7942 63.0048 22.56C62.3829 22.3258 61.8133 21.9714 61.3284 21.5171C60.8435 21.0627 60.4528 20.5173 60.1787 19.9119C59.9046 19.3066 59.7524 18.6532 59.7308 17.989C59.7308 17.872 59.7308 17.754 59.7308 17.637C59.6827 16.297 60.1685 14.9928 61.0815 14.0108C61.9944 13.0289 63.2599 12.4495 64.5998 12.4C64.7168 12.395 64.8338 12.395 64.9508 12.4C65.5467 12.3611 66.1441 12.4479 66.7043 12.6548C67.2645 12.8617 67.7749 13.184 68.2025 13.6009C68.6301 14.0177 68.9653 14.5198 69.1864 15.0745C69.4075 15.6293 69.5095 16.2243 69.4858 16.821C69.4858 17.235 69.4138 18.197 69.4088 18.227" fill="white"/>
<path d="M83.6901 10.79C83.3809 10.7912 83.0782 10.7013 82.8199 10.5314C82.5616 10.3615 82.3591 10.1192 82.2378 9.83476C82.1165 9.55037 82.0818 9.23653 82.1379 8.93249C82.1941 8.62846 82.3386 8.34773 82.5535 8.12543C82.7684 7.90313 83.0441 7.74914 83.346 7.68271C83.648 7.61628 83.9628 7.64037 84.2512 7.75196C84.5395 7.86355 84.7885 8.05769 84.9671 8.31009C85.1457 8.56249 85.2458 8.86194 85.2551 9.17098V9.24998C85.2509 9.66144 85.0838 10.0545 84.7905 10.3431C84.4972 10.6317 84.1016 10.7924 83.6901 10.79ZM82.4271 22.442C82.4222 22.4425 82.4172 22.4421 82.4125 22.4407C82.4078 22.4392 82.4035 22.4368 82.3997 22.4336C82.396 22.4305 82.3929 22.4265 82.3907 22.4221C82.3886 22.4177 82.3873 22.4129 82.3871 22.408V12.822C82.387 12.8131 82.3899 12.8044 82.3954 12.7973C82.4008 12.7903 82.4085 12.7852 82.4171 12.783H84.9571C84.9661 12.7847 84.9742 12.7895 84.9799 12.7967C84.9856 12.8039 84.9885 12.8128 84.9881 12.822V22.4C84.9889 22.4098 84.986 22.4195 84.9798 22.4271C84.9737 22.4348 84.9648 22.4397 84.9551 22.441L82.4271 22.442Z" fill="white"/>
<path d="M52.971 21C52.4752 20.9957 51.9822 20.9254 51.505 20.791L51.511 14.646C52.066 14.4561 52.6475 14.3548 53.234 14.346C53.6188 14.341 54.0009 14.4119 54.3583 14.5546C54.7157 14.6974 55.0415 14.9093 55.317 15.1781C55.5925 15.4468 55.8123 15.7673 55.9638 16.1211C56.1153 16.4749 56.1955 16.8551 56.2 17.24C56.201 17.3522 56.196 17.4643 56.185 17.576C56.2263 17.9828 56.187 18.3937 56.0694 18.7853C55.9517 19.1768 55.758 19.5414 55.4994 19.858C55.2407 20.1746 54.9221 20.4371 54.5619 20.6305C54.2017 20.8239 53.8068 20.9444 53.4 20.985C53.2585 20.9991 53.1161 21.0038 52.974 20.999L52.971 21ZM53.665 12.39C52.9148 12.3966 52.1711 12.5294 51.465 12.783H48.936C48.9311 12.783 48.9262 12.784 48.9217 12.7859C48.9172 12.7878 48.9132 12.7907 48.9098 12.7942C48.9064 12.7978 48.9038 12.802 48.9021 12.8066C48.9004 12.8112 48.8997 12.8161 48.9 12.821V28.531C49.8392 28.407 50.7341 28.0559 51.507 27.508V22.731C52.0476 22.818 52.5936 22.8671 53.141 22.878C56.601 22.878 58.841 20.804 58.841 17.592C58.8725 16.9405 58.7753 16.2891 58.555 15.6752C58.3347 15.0612 57.9957 14.4967 57.5572 14.0138C57.1187 13.5309 56.5893 13.1392 55.9994 12.8609C55.4095 12.5826 54.7705 12.4233 54.119 12.392C53.967 12.385 53.819 12.384 53.664 12.392" fill="white"/>
<path d="M77.7999 20.2C77.1402 20.5779 76.3978 20.788 75.6379 20.812C74.0709 20.812 73.1379 19.705 73.1379 17.851C73.1379 15.705 74.3379 14.318 76.1909 14.318C76.7517 14.3312 77.3028 14.4678 77.8049 14.718L77.7999 20.2ZM77.7999 7.707V12.722C77.1339 12.5211 76.4425 12.417 75.7469 12.413C75.0684 12.3973 74.3934 12.5155 73.7606 12.7607C73.1278 13.0059 72.5494 13.3734 72.0587 13.8422C71.5679 14.3109 71.1743 14.8718 70.9003 15.4927C70.6263 16.1137 70.4773 16.7825 70.4619 17.461C70.4619 17.541 70.4619 17.62 70.4619 17.7C70.4619 20.7 72.4679 22.877 75.2259 22.877C76.2424 22.8616 77.2391 22.5932 78.1259 22.096V22.961C78.9472 22.8088 79.726 22.481 80.4089 22V6.685C79.4666 6.80069 78.569 7.15334 77.7999 7.71" fill="white"/>
<path d="M93.785 20.184C93.1844 20.5731 92.4925 20.7986 91.778 20.838C90.1 20.838 89.094 19.738 89.094 17.874C89.094 15.76 90.279 14.342 92.04 14.342C92.657 14.3851 93.2551 14.5739 93.785 14.893V20.184ZM96.394 12.666C96.3932 12.6376 96.3814 12.6106 96.361 12.5908C96.3407 12.5711 96.3134 12.56 96.285 12.56H94.233C94.2038 12.5602 94.1759 12.5719 94.1551 12.5924C94.1344 12.613 94.1225 12.6408 94.122 12.67V13.023H94.07C93.2717 12.6428 92.4019 12.4363 91.518 12.417C90.8397 12.4296 90.1705 12.5757 89.5487 12.847C88.9268 13.1183 88.3645 13.5095 87.8939 13.9981C87.4233 14.4868 87.0535 15.0633 86.8058 15.6949C86.558 16.3265 86.4371 17.0007 86.45 17.679C86.45 17.715 86.45 17.75 86.45 17.786C86.4023 18.455 86.4966 19.1266 86.7266 19.7567C86.9567 20.3868 87.3173 20.9611 87.7849 21.442C88.2525 21.9229 88.8165 22.2995 89.4398 22.5472C90.0632 22.7948 90.7319 22.9079 91.402 22.879C91.9207 22.9215 92.4421 22.8393 92.9226 22.6392C93.403 22.4391 93.8287 22.1271 94.164 21.729V22.961C94.9632 22.7939 95.7191 22.4629 96.384 21.989L96.394 12.666Z" fill="white"/>
<path d="M30.4181 20.045H36.7921C36.6791 20.9016 36.3749 21.7218 35.9021 22.445H29.2721C28.8823 22.4421 28.5074 22.295 28.2197 22.0321C27.932 21.7691 27.7519 21.4089 27.7141 21.021C27.7093 21.0102 27.7059 20.9987 27.7041 20.987V8.40999C27.7054 8.3988 27.7088 8.38795 27.7141 8.37799C27.7512 7.98952 27.931 7.6286 28.2188 7.36502C28.5066 7.10144 28.8819 6.95392 29.2721 6.95099H36.7791C36.6654 7.81163 36.3618 8.63621 35.8901 9.36499H30.4181V12.787H35.8341C35.8388 12.7866 35.8436 12.7871 35.8481 12.7885C35.8526 12.79 35.8568 12.7923 35.8605 12.7954C35.8641 12.7984 35.8671 12.8022 35.8692 12.8064C35.8714 12.8106 35.8727 12.8153 35.8731 12.82V15.2C35.8726 15.21 35.8682 15.2194 35.861 15.2263C35.8537 15.2332 35.8441 15.237 35.8341 15.237H30.4181V20.045Z" fill="white"/>
<path d="M22.4401 22.637C22.2232 22.6545 22.0061 22.6073 21.816 22.5013C21.626 22.3954 21.4717 22.2355 21.3725 22.0419C21.2734 21.8482 21.2339 21.6295 21.259 21.4134C21.2842 21.1973 21.3728 20.9935 21.5138 20.8278C21.6547 20.6621 21.8417 20.5419 22.0509 20.4825C22.2602 20.423 22.4824 20.4269 22.6895 20.4937C22.8965 20.5605 23.0791 20.6872 23.2141 20.8578C23.3491 21.0284 23.4306 21.2351 23.4481 21.452C23.4481 21.483 23.4481 21.513 23.4481 21.544C23.4682 21.8134 23.3805 22.0798 23.2042 22.2846C23.0279 22.4894 22.7775 22.6158 22.5081 22.636C22.4841 22.636 22.4601 22.636 22.4361 22.636L22.4401 22.637ZM22.4361 20.323C22.1954 20.3179 21.9586 20.3843 21.7557 20.5138C21.5528 20.6433 21.3928 20.83 21.296 21.0504C21.1993 21.2708 21.17 21.515 21.212 21.752C21.254 21.989 21.3653 22.2083 21.532 22.382C21.6986 22.5558 21.913 22.6762 22.148 22.7281C22.3831 22.78 22.6282 22.761 22.8525 22.6736C23.0768 22.5861 23.2701 22.4341 23.408 22.2368C23.5458 22.0394 23.6221 21.8057 23.6271 21.565V21.541C23.6373 21.2281 23.5231 20.924 23.3094 20.6953C23.0956 20.4665 22.7999 20.3319 22.4871 20.321H22.4401" fill="white"/>
<path d="M22.1551 21.442V21H22.4551C22.6071 21 22.7851 21.024 22.7851 21.208C22.7851 21.427 22.6201 21.445 22.4321 21.445L22.1551 21.442ZM23.0061 21.234C23.0061 20.945 22.8281 20.82 22.4811 20.82H21.9351V22.26H22.1731V21.644H22.3931L22.7661 22.26H23.0331L22.6331 21.627C22.6814 21.6282 22.7295 21.6198 22.7746 21.6025C22.8197 21.5851 22.861 21.5589 22.896 21.5256C22.931 21.4923 22.9591 21.4524 22.9787 21.4082C22.9982 21.3639 23.0089 21.3163 23.0101 21.268C23.0101 21.256 23.0101 21.245 23.0101 21.233" fill="white"/>
<path d="M98.493 14.377C98.2223 14.3778 97.9623 14.2712 97.7701 14.0805C97.578 13.8898 97.4693 13.6307 97.468 13.36C97.468 13.334 97.468 13.308 97.468 13.282C97.4572 13.1419 97.4755 13.001 97.5217 12.8683C97.568 12.7356 97.6411 12.6139 97.7366 12.5108C97.8321 12.4076 97.9479 12.3254 98.0766 12.2691C98.2054 12.2129 98.3444 12.1838 98.485 12.1838C98.6255 12.1838 98.7645 12.2129 98.8933 12.2691C99.0221 12.3254 99.1379 12.4076 99.2334 12.5108C99.3289 12.6139 99.402 12.7356 99.4482 12.8683C99.4945 13.001 99.5128 13.1419 99.502 13.282C99.5198 13.5535 99.4293 13.8209 99.2503 14.0258C99.0713 14.2307 98.8184 14.3563 98.547 14.375H98.49L98.493 14.377ZM98.49 12.061C98.1767 12.0564 97.8745 12.1763 97.6495 12.3944C97.4245 12.6124 97.2952 12.9108 97.29 13.224C97.29 13.243 97.29 13.261 97.29 13.28C97.2951 13.5145 97.3692 13.7422 97.5031 13.9348C97.6369 14.1274 97.8246 14.2763 98.0426 14.3628C98.2605 14.4493 98.4992 14.4697 98.7287 14.4213C98.9582 14.373 99.1683 14.258 99.3329 14.0909C99.4974 13.9238 99.609 13.7118 99.6538 13.4816C99.6985 13.2514 99.6744 13.0131 99.5845 12.7965C99.4945 12.5799 99.3428 12.3946 99.1481 12.2638C98.9534 12.133 98.7245 12.0624 98.49 12.061Z" fill="white"/>
<path d="M98.2 13.181V12.736H98.5C98.652 12.736 98.83 12.758 98.83 12.942C98.83 13.162 98.664 13.179 98.478 13.179L98.2 13.181ZM99.052 12.974C99.052 12.684 98.873 12.559 98.526 12.559H97.98V14H98.215V13.385H98.437L98.81 14H99.076L98.676 13.367C98.7734 13.3694 98.8678 13.3331 98.9385 13.266C99.0092 13.1988 99.0504 13.1064 99.053 13.009C99.054 12.9973 99.053 12.9856 99.052 12.974Z" fill="white"/>
<path d="M14.2202 9.35399L13.7582 8.04599L9.83817 2.80699L10.5382 2.63199L17.3002 8.47499L21.2822 7.34099C21.741 7.23484 22.2113 7.18614 22.6822 7.19599C21.5192 4.69174 19.4922 2.69077 16.9732 1.56011C14.4542 0.429456 11.6119 0.244921 8.96784 1.04036C6.32376 1.83579 4.0551 3.55787 2.57802 5.8907C1.10094 8.22354 0.514463 11.0107 0.926168 13.741L10.4552 10.431L14.2202 9.35399Z" fill="white"/>
<path d="M23.1002 8.22601C22.6735 8.51141 22.213 8.74252 21.7292 8.91401L17.7422 10.05L15.0832 18.588L14.3922 18.812L14.9532 12.292L14.6392 10.941L10.9002 12.006L1.03223 14.328C1.34774 15.8681 1.97637 17.3269 2.87912 18.614C3.78188 19.9011 4.93949 20.9889 6.28013 21.81C7.62077 22.631 9.11584 23.1678 10.6725 23.3871C12.2293 23.6063 13.8144 23.5033 15.3297 23.0845C16.845 22.6656 18.258 21.9399 19.4812 20.9522C20.7043 19.9646 21.7114 18.7361 22.44 17.3431C23.1686 15.95 23.6032 14.4221 23.7168 12.8541C23.8303 11.2861 23.6205 9.71152 23.1002 8.22801" fill="white"/>
</svg>
