<svg width="102" height="22" viewBox="0 0 102 22" fill="none" xmlns="http://www.w3.org/2000/svg">
<path d="M51.308 18.776C51.308 19.128 51.308 19.208 51.546 19.424L52.875 20.736V20.792H46.975V18.272C46.6904 19.0787 46.1606 19.7763 45.4598 20.2669C44.7591 20.7575 43.9224 21.0166 43.067 21.008C40.037 21.008 37.837 18.608 37.837 14.192C37.837 10.056 40.211 7.29197 43.537 7.29197C44.2602 7.24795 44.9791 7.4309 45.5933 7.81527C46.2076 8.19965 46.6864 8.76626 46.963 9.43598V3.87998C46.9846 3.75404 46.971 3.62457 46.9235 3.50593C46.876 3.3873 46.7965 3.28416 46.694 3.20798L45.437 1.97598V1.91998L51.307 1.21997L51.308 18.776ZM46.981 17.976V9.67597C46.7713 9.4131 46.5042 9.20178 46.2001 9.05824C45.8961 8.91471 45.5632 8.84278 45.227 8.84797C43.795 8.84797 42.41 10.16 42.41 14.056C42.41 17.704 43.61 18.992 45.092 18.992C45.4644 18.9833 45.8296 18.8868 46.1577 18.7102C46.4858 18.5337 46.7675 18.2821 46.98 17.976H46.981ZM55.217 20.792V9.59198C55.2356 9.46912 55.2238 9.34354 55.1825 9.22635C55.1411 9.10915 55.0716 9.00393 54.98 8.91997L53.674 7.55998V7.50798H59.568V18.868C59.568 19.22 59.568 19.3 59.805 19.516L61.105 20.748V20.8L55.217 20.792ZM55 3.40797C54.9867 2.77848 55.224 2.16951 55.6598 1.71501C56.0955 1.26052 56.694 0.997736 57.3235 0.984475C57.9529 0.971214 58.5619 1.20856 59.0164 1.6443C59.4709 2.08004 59.7337 2.67848 59.747 3.30798C59.747 3.33998 59.747 3.37197 59.747 3.40797C59.7602 4.03747 59.5229 4.64644 59.0871 5.10094C58.8714 5.32598 58.6134 5.50632 58.3279 5.63167C58.0425 5.75701 57.7351 5.82491 57.4235 5.83147C57.1118 5.83804 56.8018 5.78315 56.5113 5.66994C56.2209 5.55672 55.9555 5.3874 55.7305 5.17165C55.276 4.73591 55.0132 4.13747 55 3.50797C55 3.47297 55 3.43998 55 3.40797ZM75.47 18.752C75.47 19.104 75.47 19.208 75.708 19.424L77.037 20.736V20.792H71.111V17.92C70.8524 18.8004 70.319 19.5751 69.5887 20.1307C68.8584 20.6863 67.9695 20.9937 67.052 21.008C64.425 21.008 63.017 19.072 63.017 15.408C63.017 13.64 63.017 11.708 63.072 9.52798C63.0935 9.40865 63.083 9.28573 63.0413 9.17185C62.9996 9.05796 62.9284 8.95722 62.835 8.87997L61.527 7.55998V7.50798H67.374V14.808C67.374 17.208 67.722 18.808 69.209 18.808C69.6041 18.7829 69.9867 18.6592 70.3217 18.4481C70.6568 18.2371 70.9336 17.9455 71.127 17.6V9.59998C71.1457 9.47711 71.1339 9.35151 71.0926 9.2343C71.0513 9.11709 70.9817 9.01187 70.89 8.92798L69.576 7.55998V7.50798H75.47V18.752ZM95.534 20.792C95.534 20.36 95.613 14.856 95.613 13.592C95.613 11.192 95.241 9.53598 93.572 9.53598C93.1559 9.549 92.7488 9.66013 92.3839 9.86032C92.019 10.0605 91.7065 10.3441 91.472 10.688C91.6392 11.4362 91.7188 12.2014 91.709 12.968C91.709 14.632 91.654 16.752 91.63 18.868C91.6084 18.9873 91.619 19.1102 91.6606 19.2241C91.7023 19.338 91.7735 19.4387 91.867 19.516L93.2 20.748V20.808H87.25C87.25 20.408 87.329 14.872 87.329 13.608C87.329 11.168 86.9569 9.55198 85.312 9.55198C84.9115 9.56726 84.5214 9.68389 84.1783 9.89096C83.8351 10.098 83.5501 10.3888 83.35 10.736V18.9C83.35 19.252 83.35 19.332 83.587 19.548L84.887 20.78V20.836H79V9.63597C79.0186 9.51311 79.0068 9.38754 78.9655 9.27035C78.9241 9.15315 78.8546 9.04793 78.763 8.96397L77.457 7.56397V7.50798H83.35V10.352C83.6099 9.44224 84.1675 8.64596 84.9334 8.09049C85.6994 7.53502 86.6295 7.25245 87.575 7.28797C88.4958 7.26386 89.3941 7.57507 90.1026 8.1637C90.8112 8.75234 91.2818 9.57831 91.427 10.488C91.725 9.5503 92.3164 8.73317 93.114 8.15704C93.9116 7.58091 94.8731 7.27625 95.857 7.28797C98.484 7.28797 99.971 9.24797 99.971 12.952C99.971 14.72 99.916 16.736 99.892 18.852C99.8693 18.9744 99.8827 19.1008 99.9305 19.2158C99.9782 19.3308 100.058 19.4295 100.161 19.5L101.461 20.732V20.788L95.534 20.792ZM21.489 19.048L23.238 20.736V20.792H14.368V20.736L16.148 19.048C16.2413 18.9707 16.3125 18.8699 16.3541 18.756C16.3958 18.6422 16.4064 18.5193 16.385 18.4V7.60797C16.3741 7.07343 16.4008 6.53877 16.465 6.00797L10.483 21.008H10.412L4.21195 7.20797C4.07695 6.86398 4.03795 6.83997 3.95095 6.60797V15.656C3.8771 16.2612 3.97881 16.8749 4.24395 17.424L6.73595 20.736V20.792H0.126953V20.736L2.61895 17.416C2.88263 16.8693 2.9843 16.2586 2.91195 15.656V5.65597C2.95263 5.16427 2.8054 4.67543 2.49995 4.28798L0.735953 1.97598V1.91998H7.06595L12.366 13.608L17.034 1.91998H23.227V1.97598L21.486 3.93597C21.3834 4.01216 21.3039 4.1153 21.2564 4.23393C21.2089 4.35257 21.1953 4.48204 21.217 4.60797V18.4C21.1945 18.5227 21.2083 18.6494 21.2566 18.7644C21.3049 18.8795 21.3856 18.978 21.489 19.048ZM28.427 13.64V13.7C28.427 17.124 30.176 18.5 32.227 18.5C33.0674 18.5268 33.8973 18.307 34.6144 17.8678C35.3314 17.4285 35.9041 16.7889 36.262 16.028H36.317C35.603 19.412 33.527 21.012 30.427 21.012C27.08 21.012 23.927 18.972 23.927 14.244C23.927 9.27598 27.092 7.29197 30.589 7.29197C33.406 7.29197 36.404 8.63598 36.404 12.956V13.644L28.427 13.64ZM28.427 12.952H32.327V12.252C32.327 8.73198 31.607 7.79597 30.527 7.79597C29.214 7.79597 28.415 9.19598 28.415 12.948L28.427 12.952Z" fill="white"/>
</svg>
