<svg width="105" height="32" viewBox="0 0 105 32" fill="none" xmlns="http://www.w3.org/2000/svg">
<path d="M36.458 17.83C35.584 17.356 35.135 16.956 35.135 16.407C35.135 15.707 35.759 15.258 36.735 15.258C37.475 15.2759 38.2045 15.4372 38.883 15.733L39.683 13.286C38.7951 12.8099 37.7853 12.6101 36.783 12.712C33.774 12.712 31.683 14.435 31.683 16.857C31.7433 17.5407 31.9861 18.1958 32.3859 18.7537C32.7857 19.3116 33.3279 19.7521 33.956 20.029C35.005 20.629 35.38 21.053 35.38 21.677C35.38 22.327 34.856 22.851 33.88 22.851C32.8958 22.8109 31.9325 22.5552 31.058 22.102L30.209 24.549C31.2431 25.1382 32.4193 25.4319 33.609 25.398C36.709 25.398 38.928 23.875 38.928 21.128C38.931 19.653 37.808 18.605 36.458 17.83Z" fill="white"/>
<path d="M48.8 12.686C48.0939 12.6938 47.3988 12.862 46.7672 13.1778C46.1356 13.4936 45.584 13.9488 45.154 14.509L45.104 14.484L46.427 7.56702H42.98L39.634 25.173H43.08L44.229 19.155C44.679 16.882 45.852 15.484 46.951 15.484C47.725 15.484 48.025 16.008 48.025 16.758C48.0241 17.2693 47.9739 17.7794 47.875 18.281L46.575 25.174H50.021L51.369 18.057C51.5182 17.3165 51.6018 16.5642 51.619 15.809C51.617 13.86 50.593 12.686 48.8 12.686Z" fill="white"/>
<path d="M59.409 12.686C55.263 12.686 52.517 16.432 52.517 20.602C52.4303 21.7923 52.82 22.9682 53.6003 23.8712C54.3807 24.7742 55.4877 25.3302 56.678 25.417C56.8725 25.43 57.0676 25.43 57.262 25.417C61.333 25.417 64.08 21.771 64.08 17.501C64.079 15.034 62.631 12.686 59.409 12.686ZM57.709 22.775C56.535 22.775 56.036 21.775 56.036 20.528C56.036 18.555 57.06 15.333 58.936 15.333C60.159 15.333 60.559 16.382 60.559 17.406C60.559 19.529 59.534 22.775 57.711 22.775H57.709Z" fill="white"/>
<path d="M72.9 12.686C72.1757 12.724 71.4699 12.9286 70.8375 13.2838C70.2052 13.639 69.6633 14.1352 69.254 14.734H69.2L69.4 12.886H66.352C66.202 14.135 65.927 16.033 65.652 17.456L63.252 30.067H66.7L67.649 24.972H67.724C68.347 25.2971 69.0448 25.4523 69.747 25.422C73.792 25.422 76.44 21.277 76.44 17.081C76.441 14.755 75.417 12.686 72.9 12.686ZM69.6 22.825C69.0814 22.8321 68.5771 22.655 68.177 22.325L68.751 19.103C69.151 16.955 70.274 15.532 71.473 15.532C72.522 15.532 72.846 16.506 72.846 17.432C72.846 19.655 71.526 22.825 69.603 22.825H69.6Z" fill="white"/>
<path d="M81.3609 7.74097C80.8396 7.73938 80.3389 7.94481 79.969 8.31214C79.599 8.67947 79.39 9.17864 79.3879 9.69997V9.73897C79.3701 9.9468 79.3933 10.1561 79.4564 10.3549C79.5195 10.5537 79.6211 10.7382 79.7555 10.8977C79.8899 11.0573 80.0544 11.1888 80.2396 11.2847C80.4248 11.3807 80.6271 11.4392 80.8349 11.457C80.8934 11.4621 80.9522 11.4638 81.0109 11.462H81.0609C81.5758 11.4826 82.0778 11.2981 82.4569 10.949C82.8359 10.6 83.0611 10.1148 83.0829 9.59997C83.0829 9.55597 83.0829 9.51097 83.0829 9.46697C83.1061 9.03322 82.956 8.60803 82.6657 8.28491C82.3754 7.9618 81.9686 7.76722 81.5349 7.74397C81.477 7.74 81.4189 7.739 81.3609 7.74097Z" fill="white"/>
<path d="M76.541 25.173H79.987L82.334 12.961H78.863L76.541 25.173Z" fill="white"/>
<path d="M91.1001 12.936H88.7001L88.8251 12.362C89.0251 11.188 89.7251 10.139 90.8731 10.139C91.2466 10.1399 91.6177 10.199 91.9731 10.314L92.6471 7.614C92.0508 7.38315 91.4126 7.28091 90.7741 7.314C89.5481 7.28045 88.3508 7.68818 87.4001 8.463C86.3053 9.49471 85.599 10.8719 85.4001 12.363L85.3001 12.937H83.7001L83.2001 15.537H84.8001L82.9771 25.177H86.423L88.2461 15.537H90.618L91.1001 12.936Z" fill="white"/>
<path d="M99.391 12.961C99.391 12.961 97.237 18.389 96.269 21.352H96.219C96.153 20.398 95.37 12.961 95.37 12.961H91.749L93.822 24.174C93.8493 24.2699 93.8567 24.3704 93.8438 24.4693C93.8309 24.5681 93.798 24.6633 93.747 24.749C93.2977 25.58 92.6553 26.2909 91.874 26.822C91.2757 27.24 90.6194 27.5681 89.926 27.796L90.875 30.718C92.1366 30.383 93.2951 29.7393 94.246 28.845C96.1462 26.8491 97.6767 24.5314 98.766 22L102.986 12.96L99.391 12.961Z" fill="white"/>
<path d="M18.319 5.04397L17.4741 5.30597C17.371 4.96326 17.2371 4.63057 17.074 4.31197C16.8634 3.8081 16.5123 3.37537 16.0627 3.0653C15.6131 2.75523 15.0839 2.58087 14.538 2.56297C14.464 2.56297 14.391 2.56997 14.318 2.57597C14.2869 2.53739 14.2535 2.50066 14.218 2.46597C13.9953 2.224 13.7216 2.03445 13.4167 1.91099C13.1119 1.78752 12.7834 1.73321 12.455 1.75197C11.086 1.79097 9.72305 2.77997 8.61705 4.53597C7.84908 5.75285 7.32692 7.10837 7.08005 8.52597L4.38005 9.36097C3.58705 9.60997 3.56205 9.63497 3.45805 10.383C3.37905 10.949 1.30005 27 1.30005 27L18.524 29.979V5.00797C18.4547 5.01317 18.386 5.02523 18.319 5.04397ZM14.342 6.27497L11.442 7.17497C11.698 6.12473 12.1974 5.14944 12.9 4.32797C13.1749 4.02239 13.5108 3.7778 13.886 3.60997C14.2223 4.45676 14.3777 5.36455 14.342 6.27497ZM12.477 2.66297C12.7671 2.64784 13.0548 2.72333 13.3 2.87897C12.9008 3.09194 12.5413 3.37203 12.237 3.70697C11.3114 4.78359 10.69 6.08785 10.437 7.48497L8.05105 8.22397C8.52005 6.02397 10.363 2.72397 12.476 2.66297H12.477ZM9.81305 15.191C9.90505 16.656 13.76 16.977 13.977 20.409C14.147 23.109 12.545 24.956 10.236 25.102C9.45712 25.172 8.67215 25.0783 7.9316 24.8269C7.19105 24.5754 6.5113 24.1718 5.93605 23.642L6.52305 21.142C7.32311 21.758 8.28231 22.133 9.28805 22.223C9.43067 22.2201 9.57134 22.1892 9.702 22.1319C9.83267 22.0747 9.95078 21.9923 10.0496 21.8894C10.1484 21.7865 10.226 21.6652 10.2779 21.5323C10.3298 21.3994 10.355 21.2576 10.352 21.115V21.057C10.231 19.146 7.09205 19.257 6.89405 16.118C6.72705 13.475 8.46305 10.797 12.294 10.555C13.0497 10.4683 13.8152 10.5657 14.525 10.839L13.649 14.115C12.9735 13.835 12.2444 13.708 11.514 13.743C9.81405 13.851 9.80205 14.918 9.81405 15.19L9.81305 15.191ZM15.252 5.99097C15.2554 5.14308 15.1147 4.30077 14.836 3.49997C15.875 3.69997 16.386 4.87197 16.602 5.57297L15.252 5.99097Z" fill="white"/>
<path d="M19.0929 29.911L26.2379 28.135C26.2379 28.135 23.1619 7.33501 23.1379 7.19201C23.1284 7.13137 23.0988 7.0757 23.0538 7.03397C23.0088 6.99224 22.9511 6.96689 22.8899 6.96201C22.7899 6.95301 20.7749 6.92301 20.7749 6.92301C20.7749 6.92301 19.5489 5.73201 19.0879 5.28101L19.0929 29.911Z" fill="white"/>
</svg>
