<svg width="59" height="32" viewBox="0 0 59 32" fill="none" xmlns="http://www.w3.org/2000/svg">
<path fill-rule="evenodd" clip-rule="evenodd" d="M7.50044 14.5954H13.7196L11.6136 7.94455C11.2185 6.71779 10.659 4.39246 10.659 4.39246H10.5935C10.5935 4.39246 10.0015 6.71779 9.60605 7.94455L7.50044 14.5954ZM8.19171 0.00146484H13.1264L21.4178 23.0871H16.4498L14.8706 18.18H6.38195L4.83618 23.0871H0L8.19171 0.00146484Z" fill="white"/>
<path fill-rule="evenodd" clip-rule="evenodd" d="M41.5586 0V23.0872H58.9623V19.1794H46.3294V13.3397H57.3185V9.49775H46.3294V3.93998H58.958V0H41.5586Z" fill="white"/>
<path fill-rule="evenodd" clip-rule="evenodd" d="M22.46 11.2591H29.7097V3.97211H30.2351V11.2591H37.5201V11.7399H30.2351V19.0955H29.7097V11.7399H22.46V11.2591Z" fill="white"/>
<path fill-rule="evenodd" clip-rule="evenodd" d="M13.4911 31.1379C13.4222 31.0152 13.2743 30.7586 13.125 30.5348L11.2457 27.6687L11.2376 27.6561H10.7783V31.7933H11.1991V28.3239C11.2752 28.4512 11.447 28.7354 11.5883 28.9491L13.4697 31.7933H13.9118V27.6561H13.4911V31.1379Z" fill="white"/>
<path fill-rule="evenodd" clip-rule="evenodd" d="M15.9062 27.6561V31.7933H18.7997V31.3845H16.3441V29.8467H18.5373V29.4601H16.3441V28.0481H18.737V27.6561H15.9062Z" fill="white"/>
<path fill-rule="evenodd" clip-rule="evenodd" d="M20.2104 27.6561V28.0537H21.5924V31.7933H22.03V28.0537H23.4068V27.6561H20.2104Z" fill="white"/>
<path fill-rule="evenodd" clip-rule="evenodd" d="M28.6683 30.4286L28.668 30.4291C28.6138 30.6505 28.5371 30.9829 28.5009 31.1425C28.4639 30.9848 28.3876 30.6588 28.3331 30.4455L27.5797 27.6562H27.126L26.3729 30.4513C26.3144 30.6632 26.2372 30.9843 26.2001 31.1414C26.1648 30.981 26.0901 30.6498 26.0317 30.4286L25.3237 27.6769L25.3186 27.6562H24.8672L25.9614 31.7728L25.9668 31.7932H26.4148L27.2197 28.7981C27.267 28.6171 27.3231 28.3686 27.3528 28.233C27.3834 28.3695 27.4406 28.6206 27.4919 28.7981L28.2687 31.7725L28.2742 31.7932H28.7045L29.8274 27.6562H29.3877L28.6683 30.4286Z" fill="white"/>
<path fill-rule="evenodd" clip-rule="evenodd" d="M33.091 27.5704C31.9581 27.5704 31.1675 28.455 31.1675 29.7217C31.1675 30.9887 31.9581 31.8732 33.091 31.8732C34.2302 31.8732 35.0261 30.9887 35.0261 29.7217C35.0261 28.455 34.2302 27.5704 33.091 27.5704ZM34.5713 29.7217C34.5713 30.7872 33.9901 31.4757 33.091 31.4757C32.1991 31.4757 31.6226 30.7872 31.6226 29.7217C31.6226 28.6566 32.1991 27.968 33.091 27.968C33.9901 27.968 34.5713 28.6566 34.5713 29.7217Z" fill="white"/>
<path fill-rule="evenodd" clip-rule="evenodd" d="M39.7196 30.8682C39.6904 30.2177 39.5429 29.9241 39.1629 29.7767C39.6026 29.6194 39.8166 29.2946 39.8166 28.7856C39.8166 28.0785 39.3731 27.6561 38.6297 27.6561H36.7803V31.7933H37.2184V29.9722H38.4354C39.0439 29.9722 39.2495 30.1862 39.2818 30.8538C39.3173 31.5793 39.3414 31.7192 39.4425 31.7882L39.4494 31.7933H39.8966V31.7283L39.8847 31.7202C39.7946 31.6577 39.7419 31.387 39.7196 30.8682ZM37.2184 28.0481H38.5496C39.1152 28.0481 39.3675 28.2863 39.3675 28.8198C39.3675 29.3246 39.0668 29.5915 38.4985 29.5915H37.2184V28.0481Z" fill="white"/>
<path fill-rule="evenodd" clip-rule="evenodd" d="M44.1569 27.6561L41.9915 29.7927V27.6561H41.5537V31.7933H41.9915V30.3388L42.6917 29.6494L44.2891 31.7823L44.2972 31.7933H44.8226L42.9942 29.348L44.6845 27.7036L44.7328 27.6561H44.1569Z" fill="white"/>
<path fill-rule="evenodd" clip-rule="evenodd" d="M47.6056 29.4153C46.8703 29.2772 46.5198 29.1311 46.5198 28.6713C46.5198 28.2269 46.8923 27.9513 47.4917 27.9513C48.0851 27.9513 48.4627 28.2606 48.5267 28.8005L48.5292 28.8248H48.9554L48.9522 28.7942C48.8707 28.02 48.3362 27.5761 47.4857 27.5761C46.6528 27.5761 46.0933 28.0208 46.0933 28.6827C46.0933 29.199 46.3158 29.5865 47.4004 29.8C48.2587 29.9742 48.6347 30.1084 48.6347 30.6638C48.6347 31.1671 48.2355 31.4924 47.6172 31.4924C46.8643 31.4924 46.4096 31.1087 46.3713 30.4396L46.3697 30.4136H45.9316L45.9332 30.4426C45.9847 31.3348 46.612 31.8676 47.6113 31.8676C48.4887 31.8676 49.0781 31.3769 49.0781 30.6468C49.0781 29.7725 48.4109 29.5717 47.6053 29.4153" fill="white"/>
</svg>
