<svg width="153" height="18" viewBox="0 0 153 18" fill="none" xmlns="http://www.w3.org/2000/svg">
<path d="M28.0479 0.640991C26.9867 0.642435 25.9363 0.8529 24.9565 1.26037C23.9768 1.66783 23.0869 2.26432 22.3377 3.01576C21.5884 3.7672 20.9946 4.65887 20.59 5.63984C20.1855 6.62081 19.9781 7.67187 19.9799 8.73299C19.9799 8.80199 19.9799 8.87099 19.9799 8.94099C19.9189 11.0786 20.7091 13.1529 22.1768 14.7082C23.6445 16.2635 25.6696 17.1725 27.8071 17.2354C29.9446 17.2984 32.0197 16.5101 33.5764 15.0439C35.133 13.5777 36.0439 11.5535 36.1089 9.41599C36.1089 9.25799 36.1089 9.09899 36.1089 8.94099C36.1405 7.88244 35.9632 6.82803 35.5872 5.83799C35.2113 4.84794 34.6439 3.94166 33.9177 3.17091C33.1914 2.40015 32.3204 1.78002 31.3544 1.34594C30.3884 0.911847 29.3464 0.672305 28.2879 0.640991C28.2092 0.640991 28.1292 0.640991 28.0479 0.640991ZM28.0479 14.761C24.8749 14.761 22.6329 12.199 22.6329 8.93799C22.6329 5.67699 24.8749 3.11499 28.0479 3.11499C31.2209 3.11499 33.4629 5.67799 33.4629 8.94099C33.4629 12.204 31.2229 14.761 28.0479 14.761ZM44.5549 0.786991H41.9349V17.087H51.7169V14.615H44.5839V0.786991H44.5549ZM60.7419 10.1H64.4419V7.62799H60.7419V3.26099H68.3699V0.786991H58.1229V17.087H68.4859V14.615H60.7419V10.1ZM92.9119 7.62499H86.1869V0.786991H83.5669V17.087H86.1869V10.1H92.9119V17.09H95.5319V0.786991H92.9119V7.62499ZM150 0.786991V12.257L143.566 0.786991H140.684V17.087H143.304V5.85199L149.738 17.09H152.62V0.786991H150ZM8.71586 14.761C5.54286 14.761 3.29986 12.2 3.29986 8.93799C3.29986 5.67599 5.54286 3.11599 8.71586 3.11599C9.56033 3.10198 10.3952 3.29653 11.1465 3.68238C11.8978 4.06823 12.5423 4.63347 13.0229 5.32799L14.8879 3.64099C14.1528 2.70207 13.2109 1.94555 12.1354 1.43039C11.06 0.915237 9.88019 0.655352 8.68786 0.670991C7.62674 0.672435 6.5763 0.8829 5.59653 1.29037C4.61677 1.69783 3.72686 2.29432 2.97766 3.04576C2.22845 3.7972 1.63461 4.68887 1.23005 5.66984C0.825495 6.65081 0.618151 7.70187 0.619859 8.76299C0.619859 8.82966 0.619859 8.89633 0.619859 8.96299C0.588001 10.0215 0.765036 11.076 1.14085 12.0661C1.51666 13.0562 2.08388 13.9625 2.8101 14.7333C3.53632 15.5041 4.4073 16.1242 5.37328 16.5583C6.33926 16.9923 7.3813 17.2318 8.43986 17.263C8.52186 17.263 8.60286 17.263 8.68386 17.263C10.0454 17.2733 11.3863 16.9299 12.5753 16.2664C13.7643 15.6029 14.7607 14.6421 15.4669 13.478L13.4879 11.937C13.0399 12.81 12.3541 13.5384 11.5097 14.0381C10.6653 14.5378 9.69668 14.7885 8.71586 14.761ZM107.73 0.786991L101.704 17.087H104.441L105.664 13.681H112.447L113.67 17.087H116.407L110.38 0.786991H107.73ZM106.537 11.241L109.037 4.28299L111.537 11.241H106.537ZM126.246 0.786991L120.22 17.087H122.957L124.18 13.681H130.963L132.186 17.087H134.923L128.9 0.786991H126.246ZM125.053 11.241L127.553 4.28299L130.028 11.241H125.053Z" fill="white"/>
</svg>
