<svg width="91" height="25" viewBox="0 0 91 25" fill="none" xmlns="http://www.w3.org/2000/svg">
<path d="M0.14502 0.429993H3.75702L8.70702 14.01V0.429993H12.507V22.93C11.117 23.0713 9.73002 23.2217 8.34602 23.381L3.94602 10.868V23.918C2.67935 24.0813 1.41269 24.252 0.14602 24.43L0.14502 0.429993ZM86.058 23.85L83.28 16.757L80.475 23.192C79.1417 23.0467 77.81 22.9097 76.48 22.781L81.3 11.714L76.885 0.429993H81L83.472 6.74299L86.221 0.429993H90.4L85.45 11.789L90.4 24.43H90.394C88.9494 24.226 87.504 24.0327 86.058 23.85ZM16.162 0.429993H26.719V4.16999H19.962V9.23799C21.514 9.21799 23.721 9.19599 25.094 9.19899V12.906C23.375 12.885 21.435 12.929 19.962 12.944V18.555C22.2074 18.3797 24.4594 18.2273 26.718 18.098V21.805C23.1847 22.005 19.6657 22.2637 16.161 22.581L16.162 0.429993ZM69.845 22.207V0.429993H73.645V22.517C72.3783 22.4057 71.1117 22.3023 69.845 22.207ZM56.393 21.468V0.429993H60.193V17.913C62.371 18.0137 64.5437 18.1353 66.711 18.278V21.984C63.285 21.758 59.8454 21.5857 56.392 21.467L56.393 21.468ZM33.133 4.16799H29.155V0.429993H40.91V4.16999H36.933V21.385C35.6664 21.4177 34.3997 21.4573 33.133 21.504V4.16799ZM43.345 0.429993H53.956V4.16999H47.145V9.01899H52.3V12.73H47.145V21.287H43.345V0.429993Z" fill="white"/>
</svg>
