<svg width="39" height="25" viewBox="0 0 39 25" fill="none" xmlns="http://www.w3.org/2000/svg">
<path d="M8.86598 0.268127C6.88504 0.268127 5.27917 1.874 5.27917 3.85494C5.27917 5.83588 6.88504 7.44175 8.86598 7.44175C10.8469 7.44175 12.4528 5.83588 12.4528 3.85494C12.4528 1.874 10.8469 0.268127 8.86598 0.268127ZM30.3869 0.268127C28.4059 0.268127 26.8 1.874 26.8 3.85494C26.8 5.83588 28.4059 7.44175 30.3869 7.44175C32.3678 7.44175 33.9737 5.83588 33.9737 3.85494C33.9737 1.874 32.3678 0.268127 30.3869 0.268127ZM19.6264 1.16483C17.1502 1.16483 15.1429 3.17217 15.1429 5.64835C15.1429 8.12453 17.1502 10.1319 19.6264 10.1319C22.1026 10.1319 24.1099 8.12453 24.1099 5.64835C24.1099 3.17217 22.1026 1.16483 19.6264 1.16483ZM9.31433 10.5802C4.59499 10.5802 0.795654 12.7523 0.795654 15.5121V19.9956H8.86598V18.2022C8.86598 16.0476 10.3342 15.1756 12.2987 14.069C13.4507 13.42 14.8154 12.9603 16.3058 12.6819C14.7715 11.404 12.2219 10.5802 9.31433 10.5802ZM29.9385 10.5802C27.031 10.5802 24.4813 11.404 22.947 12.6819C24.4374 12.9603 25.8022 13.42 26.9542 14.069C28.9186 15.1756 30.3869 16.0476 30.3869 18.2022V19.9956H38.4572V15.5121C38.4572 12.7523 34.6579 10.5802 29.9385 10.5802ZM19.6264 13.7187C14.4103 13.7187 10.211 15.1112 10.211 18.2022V24.4791H29.0418V18.2022C29.0418 15.1112 24.8425 13.7187 19.6264 13.7187Z" fill="#19233C"/>
</svg>
