<svg width="62" height="62" viewBox="0 0 62 62" fill="none" xmlns="http://www.w3.org/2000/svg">
<g clip-path="url(#clip0)">
<path d="M25.7663 27.7706C25.7664 28.1984 25.9363 28.6087 26.2388 28.9112C26.5413 29.2137 26.9516 29.3837 27.3794 29.3837L41.0691 29.3837C41.492 29.3764 41.8952 29.2032 42.1917 28.9015C42.4882 28.5998 42.6544 28.1937 42.6544 27.7706C42.6544 27.3476 42.4882 26.9415 42.1917 26.6398C41.8952 26.3381 41.492 26.1649 41.0691 26.1575L27.3794 26.1575C26.9516 26.1576 26.5413 26.3276 26.2388 26.6301C25.9363 26.9326 25.7664 27.3428 25.7663 27.7706Z" fill="#19233C"/>
<path d="M30.1171 32.546L22.7236 32.5472C21.4653 32.5199 20.2662 32.0079 19.3763 31.118C18.4863 30.228 17.9743 29.0289 17.947 27.7706C17.9471 26.505 18.4499 25.2913 19.3448 24.3964C20.2397 23.5015 21.4534 22.9987 22.719 22.9986L30.1126 22.9975C30.5355 22.9901 30.9387 22.817 31.2352 22.5152C31.5317 22.2135 31.6979 21.8074 31.6979 21.3844C31.6979 20.9614 31.5317 20.5553 31.2352 20.2536C30.9387 19.9518 30.5355 19.7787 30.1126 19.7713L22.719 19.7724C20.5967 19.7726 18.5614 20.6158 17.0608 22.1166C15.5602 23.6174 14.7173 25.6529 14.7174 27.7752C14.7176 29.8975 15.5608 31.9328 17.0616 33.4334C18.5624 34.934 20.5979 35.7769 22.7202 35.7768L30.1137 35.7756C30.542 35.7761 30.9529 35.6064 31.2561 35.3039C31.5592 35.0014 31.7298 34.5908 31.7302 34.1626C31.7305 33.9505 31.6889 33.7405 31.608 33.5445C31.527 33.3485 31.4083 33.1703 31.2585 33.0202C30.956 32.7171 30.5454 32.5465 30.1171 32.546Z" fill="#19233C"/>
<path d="M53.7226 27.7661C53.7228 26.7157 53.516 25.6756 53.114 24.7052C52.7121 23.7347 52.123 22.853 51.3803 22.1103C50.6376 21.3675 49.7558 20.7784 48.7854 20.3765C47.8149 19.9746 46.7748 19.7678 45.7245 19.7679L38.3309 19.769C37.9079 19.7764 37.5048 19.9496 37.2083 20.2513C36.9118 20.553 36.7456 20.9591 36.7456 21.3821C36.7456 21.8052 36.9118 22.2113 37.2083 22.513C37.5048 22.8147 37.9079 22.9879 38.3309 22.9952L45.7245 22.9941C46.9827 23.0214 48.1819 23.5334 49.0718 24.4233C49.9617 25.3132 50.4737 26.5124 50.501 27.7706C50.5009 29.0362 49.9982 30.25 49.1032 31.1449C48.2083 32.0398 46.9946 32.5426 45.729 32.5426L38.3355 32.5438C38.1213 32.54 37.9085 32.579 37.7095 32.6584C37.5105 32.7378 37.3294 32.856 37.1766 33.0062C37.0238 33.1563 36.9024 33.3354 36.8196 33.533C36.7368 33.7306 36.6941 33.9426 36.6941 34.1569C36.6941 34.3711 36.7368 34.5832 36.8196 34.7807C36.9024 34.9783 37.0238 35.1574 37.1766 35.3075C37.3294 35.4577 37.5105 35.5759 37.7095 35.6553C37.9085 35.7347 38.1213 35.7737 38.3355 35.77L45.729 35.7688C46.7795 35.7685 47.8195 35.5613 48.7898 35.1589C49.7601 34.7565 50.6416 34.1669 51.384 33.4237C52.1263 32.6805 52.7149 31.7983 53.1162 30.8276C53.5175 29.8568 53.7236 28.8165 53.7226 27.7661Z" fill="#19233C"/>
</g>
<defs>
<clipPath id="clip0">
<rect width="38.7202" height="48.4002" fill="white" transform="translate(34.2241 0.391296) rotate(45)"/>
</clipPath>
</defs>
</svg>
