<svg width="579" height="335" viewBox="0 0 579 335" fill="none" xmlns="http://www.w3.org/2000/svg">
<path d="M579 241.357H433.495V242.565H579V241.357Z" fill="#3D4356"/>
<path d="M465.943 230.501L470.17 252.855L479.226 255.271L476.811 228.689L465.943 230.501Z" fill="#A0616A"/>
<path d="M516.659 230.501L520.885 252.855L529.941 255.271L527.526 228.689L516.659 230.501Z" fill="#A0616A"/>
<path d="M475.604 248.626C475.604 248.626 465.943 248.022 465.943 251.043C465.943 254.063 461.113 264.334 461.113 264.334C461.113 264.334 457.491 276.417 467.151 275.208C476.811 274 482.849 263.125 482.849 263.125L480.434 251.647L475.604 248.626Z" fill="#2E3341"/>
<path d="M523.988 249.74C523.988 249.74 517.544 245.595 518.004 248.358C518.465 251.121 518.925 258.49 522.147 258.951C525.369 259.412 535.034 262.175 535.495 263.096C535.955 264.017 547.001 267.702 547.001 261.714C547.001 255.727 540.097 251.121 540.097 251.121L532.273 245.134C532.273 245.134 527.21 244.673 526.289 247.897C525.369 251.121 523.988 249.74 523.988 249.74Z" fill="#2E3341"/>
<path d="M462.777 103.309C462.777 103.309 452.514 88.2056 448.891 93.0388C445.269 97.872 457.947 106.934 457.947 106.934L462.777 103.309Z" fill="#A0616A"/>
<path d="M466.4 117.809C465.796 117.205 454.928 106.934 454.928 106.934L462.777 101.497L471.834 110.559L466.4 117.809Z" fill="#576589"/>
<path d="M467.909 70.9874C467.909 70.9874 460.06 71.5915 460.664 78.2371C461.268 84.8828 466.4 106.934 466.4 106.934L469.419 112.976C469.419 112.976 480.588 78.2371 467.909 70.9874Z" fill="#576589"/>
<path d="M468.513 49.8422L470.686 57.092H497.916L498.701 49.2381L501.055 57.092H504.557L505.342 49.2381L507.697 57.092H511.38L507.917 48.7446C506.308 44.7541 505.085 40.6184 504.266 36.3944C503.186 31.1492 500.331 26.4373 496.182 23.054C492.033 19.6706 486.846 17.8228 481.494 17.8224C481.173 17.8224 480.853 17.8288 480.535 17.8418C465.274 18.461 455.499 34.4537 461.355 48.5702L464.89 57.092H467.788L468.513 49.8422Z" fill="#2E3341"/>
<path d="M468.211 112.976C468.211 112.976 449.495 128.683 454.928 149.829C460.362 170.974 462.174 237.43 462.174 237.43L480.89 235.618V152.245L506.851 201.785L511.078 237.43L532.209 233.805L522.549 190.307L503.972 134.859L502.021 118.863L468.211 112.976Z" fill="#2E3341"/>
<path d="M481.192 50.4463C488.194 50.4463 493.871 44.7661 493.871 37.7592C493.871 30.7523 488.194 25.0721 481.192 25.0721C474.189 25.0721 468.513 30.7523 468.513 37.7592C468.513 44.7661 474.189 50.4463 481.192 50.4463Z" fill="#A0616A"/>
<path d="M473.645 46.5194C473.645 46.5194 479.079 66.4563 476.06 68.8729C473.041 71.2895 497.191 61.0189 497.191 61.0189C497.191 61.0189 486.928 49.5401 488.135 44.7069L473.645 46.5194Z" fill="#A0616A"/>
<path d="M495.984 56.7899C495.984 56.7899 486.317 65.1103 476.962 65.7832C476.962 65.7832 464.589 72.4977 465.192 73.1019C465.796 73.706 467.607 82.1641 467.607 82.1641C467.607 82.1641 470.626 86.8288 470.626 96.6636C470.626 97.8719 466.4 114.788 466.4 114.788L502.021 119.621C502.021 119.621 511.681 88.2056 512.285 77.3309C512.889 66.4562 516.511 54.9774 511.078 54.3733C505.644 53.7691 495.984 56.7899 495.984 56.7899Z" fill="#576589"/>
<path d="M509.87 56.7899C509.87 56.7899 514.097 53.165 516.512 61.6231C518.927 70.0811 528.587 96.6636 526.172 102.101C523.757 107.538 509.267 131.704 509.267 131.704L502.021 126.871L516.512 99.6844L508.059 80.3517L509.87 56.7899Z" fill="#576589"/>
<path d="M505.04 126.267C505.04 126.267 486.324 137.746 492.361 140.162C498.399 142.579 508.663 129.892 508.663 129.892L505.04 126.267Z" fill="#A0616A"/>
<path d="M467.305 23.2597V35.9468H472.135L473.947 30.5094L474.4 35.9468H487.833L489.644 30.5094L490.097 35.9468H495.682V23.2597H467.305Z" fill="#2E3341"/>
<path opacity="0.2" d="M467.305 83.0703C467.305 83.0703 466.098 95.1533 467.909 97.5699C469.721 99.9865 467.305 83.0703 467.305 83.0703Z" fill="black"/>
<path d="M362.856 293.918H106.864V295.126H362.856V293.918Z" fill="#3D4356"/>
<path d="M347.285 202.154L273.011 276.476C261.657 287.837 246.257 294.22 230.199 294.22C214.142 294.22 198.742 287.837 187.387 276.476C186.385 275.473 185.419 274.44 184.501 273.377C182.989 271.649 181.58 269.833 180.281 267.94C175.517 261.044 172.258 253.222 170.717 244.982C170.373 243.188 170.114 241.375 169.939 239.545C169.751 237.593 169.657 235.624 169.655 233.636C169.65 228.077 170.405 222.544 171.901 217.191C172.414 215.348 173.016 213.536 173.706 211.754C176.755 203.889 181.415 196.75 187.387 190.796L219.791 158.371C221.489 156.672 223.792 155.717 226.193 155.717C228.595 155.717 230.898 156.672 232.596 158.371C234.294 160.071 235.248 162.375 235.248 164.778C235.248 167.181 234.294 169.486 232.596 171.185L200.193 203.61C197.744 206.056 195.601 208.791 193.811 211.754C189.835 218.358 187.745 225.926 187.767 233.636C187.768 235.612 187.903 237.587 188.172 239.545C188.424 241.38 188.799 243.197 189.295 244.982C191.273 252.139 195.093 258.651 200.373 263.87C205.653 269.088 212.208 272.829 219.384 274.719C226.561 276.61 234.107 276.583 241.27 274.643C248.433 272.703 254.962 268.917 260.206 263.662L278.874 244.982L312.08 211.754L334.48 189.34C341.522 182.273 345.857 172.953 346.726 163.011C347.595 153.068 344.942 143.137 339.231 134.955C337.887 132.982 337.374 130.558 337.805 128.21C338.236 125.862 339.575 123.778 341.532 122.412C343.488 121.046 345.905 120.507 348.256 120.914C350.607 121.32 352.704 122.638 354.09 124.581C362.227 136.257 366.003 150.424 364.759 164.604C363.516 178.784 357.33 192.075 347.285 202.154Z" fill="#3D4356"/>
<path d="M463.683 60.584C463.683 61.031 463.677 61.4781 463.665 61.9252C463.509 69.8337 461.801 77.6343 458.636 84.8828C457.825 86.7411 456.918 88.556 455.919 90.3201C453.206 95.1206 449.853 99.5291 445.951 103.424L413.547 135.849C411.848 137.544 409.547 138.495 407.147 138.493C404.748 138.492 402.447 137.537 400.751 135.84C399.054 134.142 398.1 131.84 398.099 129.439C398.097 127.038 399.048 124.735 400.742 123.035L433.145 90.6101C433.242 90.5135 433.339 90.4168 433.429 90.3201C440.906 82.7258 445.235 72.5817 445.546 61.9252C445.565 61.4781 445.571 61.031 445.571 60.584C445.571 59.2065 445.506 57.8411 445.377 56.4878C444.432 46.6857 440.107 37.5182 433.145 30.5578C432.499 29.9114 431.841 29.2891 431.159 28.697C423.413 21.8828 413.452 18.1244 403.139 18.1244C392.825 18.1244 382.864 21.8828 375.118 28.697C374.436 29.2891 373.778 29.9114 373.132 30.5578L298.858 104.88C290.913 112.85 286.451 123.649 286.451 134.906C286.451 146.164 290.913 156.962 298.858 164.932C300.556 166.632 301.51 168.936 301.51 171.339C301.51 173.742 300.556 176.047 298.858 177.746C297.16 179.446 294.857 180.4 292.456 180.4C290.054 180.4 287.751 179.446 286.053 177.746C274.715 166.376 268.348 150.969 268.348 134.906C268.348 118.844 274.715 103.437 286.053 92.0661L360.327 17.7438C366.788 11.2913 374.623 6.38272 383.246 3.38461C391.87 0.386493 401.058 -0.623703 410.126 0.429429C419.194 1.48256 427.907 4.57182 435.615 9.46655C443.323 14.3613 449.826 20.935 454.639 28.697C455.735 30.4547 456.737 32.2697 457.64 34.1344C461.036 41.1326 463.041 48.7244 463.544 56.4878C463.635 57.8472 463.681 59.2125 463.683 60.584Z" fill="#3D4356"/>
<path d="M75.6596 318.184C72.8937 328.415 63.4201 334.751 63.4201 334.751C63.4201 334.751 58.4307 324.5 61.1966 314.269C63.9624 304.038 73.4361 297.702 73.4361 297.702C73.4361 297.702 78.4254 307.953 75.6596 318.184Z" fill="#8CC3FF"/>
<path d="M50.4983 318.184C53.2642 328.415 62.7378 334.751 62.7378 334.751C62.7378 334.751 67.7272 324.5 64.9613 314.269C62.1955 304.038 52.7218 297.702 52.7218 297.702C52.7218 297.702 47.7325 307.953 50.4983 318.184Z" fill="#8CC3FF"/>
<path d="M54.5623 315.985C62.1518 323.378 63.0789 334.743 63.0789 334.743C63.0789 334.743 51.7008 334.121 44.1113 326.728C36.5217 319.335 35.5947 307.971 35.5947 307.971C35.5947 307.971 46.9727 308.592 54.5623 315.985Z" fill="#3D4356"/>
<path d="M71.5957 315.985C64.0061 323.378 63.0791 334.743 63.0791 334.743C63.0791 334.743 74.4572 334.121 82.0467 326.728C89.6362 319.335 90.5632 307.971 90.5632 307.971C90.5632 307.971 79.1852 308.592 71.5957 315.985Z" fill="#3D4356"/>
<path d="M412.364 59.5086C412.364 60.3201 412.283 61.1296 412.123 61.9251C411.565 64.6541 410.083 67.1067 407.927 68.8681C405.771 70.6295 403.072 71.5915 400.289 71.5915C397.505 71.5915 394.807 70.6295 392.651 68.8681C390.495 67.1067 389.013 64.6541 388.455 61.9251C388.092 60.1254 388.139 58.2667 388.594 56.4878C389.327 53.6375 391.073 51.1527 393.507 49.4997C395.94 47.8467 398.893 47.1392 401.81 47.5099C404.728 47.8807 407.41 49.3043 409.353 51.5135C411.296 53.7227 412.367 56.5656 412.364 59.5086Z" fill="#3D4356"/>
<path d="M234.257 242.565C234.256 243.377 234.176 244.186 234.015 244.982C233.458 247.711 231.976 250.163 229.819 251.925C227.663 253.686 224.965 254.648 222.182 254.648C219.398 254.648 216.7 253.686 214.544 251.925C212.387 250.163 210.905 247.711 210.348 244.982C209.984 243.182 210.032 241.323 210.487 239.545C211.219 236.694 212.966 234.209 215.399 232.556C217.833 230.903 220.785 230.196 223.703 230.567C226.62 230.937 229.303 232.361 231.246 234.57C233.189 236.779 234.259 239.622 234.257 242.565Z" fill="#3D4356"/>
<path d="M139.467 333.792H0V335H139.467V333.792Z" fill="#3D4356"/>
<path d="M349.38 28.697H375.118C374.436 29.2891 373.778 29.9114 373.132 30.5578L369.558 34.1343H343.947L349.38 28.697Z" fill="#8CC3FF"/>
<path d="M457.639 34.1343H436.339C435.343 32.8828 434.276 31.6887 433.145 30.5578C432.499 29.9114 431.841 29.2891 431.159 28.697H454.639C455.735 30.4547 456.737 32.2697 457.639 34.1343Z" fill="#8CC3FF"/>
<path d="M321.608 56.4878H347.219L341.785 61.9252H316.174L321.608 56.4878Z" fill="#8CC3FF"/>
<path d="M411.984 56.4878C412.439 58.2667 412.486 60.1254 412.123 61.9252H388.455C388.092 60.1254 388.139 58.2667 388.594 56.4878H411.984Z" fill="#8CC3FF"/>
<path d="M463.683 60.5839C463.683 61.031 463.677 61.4781 463.665 61.9252H445.546C445.564 61.4781 445.57 61.031 445.57 60.5839C445.57 59.2065 445.506 57.8411 445.377 56.4878H463.544C463.635 57.8472 463.681 59.2125 463.683 60.5839Z" fill="#8CC3FF"/>
<path d="M293.231 84.8828H318.842L313.409 90.3201H287.797L293.231 84.8828Z" fill="#8CC3FF"/>
<path d="M458.636 84.8828C457.825 86.7411 456.918 88.556 455.919 90.3201H433.429C435.087 88.6383 436.599 86.8194 437.951 84.8828H458.636Z" fill="#8CC3FF"/>
<path d="M193.811 211.754C192.761 213.497 191.839 215.314 191.052 217.191H171.901C172.414 215.349 173.016 213.536 173.706 211.754H193.811Z" fill="#8CC3FF"/>
<path d="M337.692 211.754L332.258 217.191H306.646L312.08 211.754H337.692Z" fill="#8CC3FF"/>
<path d="M189.295 244.982H170.717C170.373 243.188 170.114 241.375 169.938 239.545H188.172C188.424 241.38 188.799 243.197 189.295 244.982Z" fill="#8CC3FF"/>
<path d="M234.257 242.565C234.256 243.377 234.176 244.186 234.015 244.982H210.348C209.984 243.182 210.032 241.323 210.487 239.545H233.876C234.129 240.532 234.257 241.547 234.257 242.565Z" fill="#8CC3FF"/>
<path d="M309.919 239.545L304.485 244.982H278.874L284.308 239.545H309.919Z" fill="#8CC3FF"/>
<path d="M215.202 273.377H184.501C182.989 271.649 181.58 269.833 180.281 267.94H205.18C208.258 270.199 211.63 272.029 215.202 273.377Z" fill="#8CC3FF"/>
<path d="M281.543 267.94L276.109 273.377H245.197C248.769 272.029 252.141 270.199 255.219 267.94H281.543Z" fill="#8CC3FF"/>
<path d="M190.541 102.545C185.925 94.74 176.793 94.3763 176.793 94.3763C176.793 94.3763 167.894 93.2376 162.185 105.124C156.864 116.203 149.521 126.9 161.003 129.494L163.077 123.035L164.361 129.975C165.996 130.093 167.636 130.121 169.274 130.059C181.571 129.662 193.281 130.175 192.904 125.76C192.403 119.89 194.982 110.054 190.541 102.545Z" fill="#2E3341"/>
<path d="M157.278 274.887L157.882 290.595H168.749L168.145 273.679L157.278 274.887Z" fill="#FBBEBE"/>
<path d="M186.862 163.724L185.763 167.379L171.527 214.702L169.957 219.91L171.164 275.491L156.07 277.304C156.07 277.304 155.63 271.468 154.984 262.853C153.686 245.791 151.56 217.813 150.329 202.589C149.876 196.958 149.55 193.074 149.429 192.119C148.825 187.286 156.674 163.12 156.674 163.12L172.372 161.912L186.862 163.724Z" fill="#2E3341"/>
<path d="M160.9 288.783C160.9 288.783 156.674 283.949 156.07 287.574C155.467 291.199 148.222 305.095 148.222 305.095C148.222 305.095 127.09 318.99 145.203 320.198C145.203 320.198 154.259 318.99 157.278 314.157C157.278 314.157 162.108 311.136 163.315 311.136C164.523 311.136 171.768 308.72 170.56 305.095C169.353 301.47 169.957 288.179 169.957 288.179L160.9 288.783Z" fill="#2E3341"/>
<path d="M160.297 260.388L165.731 270.658L174.183 266.429L168.749 254.346L160.297 260.388Z" fill="#FBBEBE"/>
<path opacity="0.2" d="M156.071 230.784C156.071 230.784 151.567 220.937 150.335 205.712C159.077 195.937 169.655 185.171 169.655 185.171L182.334 184.567L186.258 184.265C187.176 193.448 179.412 205.277 171.527 214.702C166.735 220.398 161.572 225.771 156.071 230.784Z" fill="black"/>
<path d="M171.768 184.869C171.768 184.869 133.128 218.702 138.561 232.597C143.995 246.492 159.089 263.408 159.089 263.408L170.75 256.444L159.693 230.785C159.693 230.785 164.328 226.671 169.971 220.576C179.153 210.657 191.002 195.491 189.88 184.265L189.277 163.724L179.013 164.932L171.768 184.869Z" fill="#2E3341"/>
<path d="M168.145 268.242C168.145 268.242 163.919 268.242 164.523 271.867C165.127 275.491 166.334 281.533 166.334 281.533C166.334 281.533 161.504 309.928 172.975 303.282C184.447 296.637 181.428 279.116 181.428 279.116C181.428 279.116 185.654 268.242 180.221 267.033C174.787 265.825 172.975 264.617 172.372 265.221C171.768 265.825 168.145 268.242 168.145 268.242Z" fill="#2E3341"/>
<path d="M176.598 120.225C182.6 120.225 187.466 115.357 187.466 109.351C187.466 103.345 182.6 98.4761 176.598 98.4761C170.596 98.4761 165.73 103.345 165.73 109.351C165.73 115.357 170.596 120.225 176.598 120.225Z" fill="#FBBEBE"/>
<path d="M172.372 113.58C172.372 113.58 177.202 126.267 175.39 126.871C173.579 127.475 169.957 130.496 169.957 130.496L175.994 135.933L191.692 127.475C191.692 127.475 184.447 117.809 185.05 113.58H172.372Z" fill="#FBBEBE"/>
<path d="M191.692 125.059C191.692 125.059 179.059 131.29 174.508 127.268C174.508 127.268 166.938 126.871 165.731 131.1C164.523 135.329 166.938 138.954 163.919 140.162C160.901 141.371 158.787 144.693 160.599 150.131C162.41 155.568 162.108 156.474 159.693 158.287C157.278 160.099 154.863 163.724 154.863 164.932C154.863 166.141 152.448 166.141 153.655 167.349C154.863 168.557 152.448 167.349 154.863 168.557C157.278 169.766 163.919 158.891 168.749 164.328C173.579 169.766 188.673 178.828 189.881 173.39C191.088 167.953 194.711 154.662 194.711 154.662C194.711 154.662 207.39 131.1 203.767 128.683C200.145 126.267 191.692 125.059 191.692 125.059Z" fill="#CCD2E0"/>
<path d="M189.881 167.349C189.881 167.349 183.239 166.141 181.428 170.37C179.617 174.599 169.353 184.265 175.994 184.869C182.636 185.473 187.466 174.599 187.466 174.599L194.107 173.39L189.881 167.349Z" fill="#FBBEBE"/>
<path d="M196.522 128.683L204.418 129.124C204.418 129.124 207.993 132.913 208.597 136.537C209.201 140.162 220.672 167.349 213.427 170.37C206.182 173.39 190.484 175.203 190.484 175.203L188.673 166.745L198.937 163.12L191.692 148.016L196.522 128.683Z" fill="#CCD2E0"/>
<path opacity="0.2" d="M160.598 231.087L170.53 255.931L158.787 231.087L169.051 220.212L160.598 231.087Z" fill="black"/>
<path opacity="0.2" d="M154.647 258.434L158.787 263.711H155.769L154.647 258.434Z" fill="black"/>
<path d="M177.911 101.023C181.558 101.023 184.514 98.065 184.514 94.4158C184.514 90.7667 181.558 87.8084 177.911 87.8084C174.264 87.8084 171.308 90.7667 171.308 94.4158C171.308 98.065 174.264 101.023 177.911 101.023Z" fill="#2E3341"/>
<path d="M170.612 92.6771C170.612 91.0452 171.216 89.4711 172.307 88.258C173.398 87.0449 174.899 86.2786 176.52 86.1068C176.289 86.0823 176.057 86.0699 175.825 86.0696C174.958 86.0688 174.098 86.2391 173.296 86.5708C172.495 86.9025 171.766 87.389 171.152 88.0027C170.538 88.6163 170.051 89.345 169.719 90.1471C169.387 90.9491 169.216 91.8089 169.216 92.6771C169.216 93.5453 169.387 94.405 169.719 95.2071C170.051 96.0092 170.538 96.7379 171.152 97.3515C171.766 97.9651 172.495 98.4517 173.296 98.7834C174.098 99.1151 174.958 99.2854 175.825 99.2845C176.057 99.2843 176.289 99.2719 176.52 99.2474C174.899 99.0756 173.398 98.3093 172.307 97.0962C171.216 95.8831 170.612 94.309 170.612 92.6771Z" fill="#2E3341"/>
<path d="M188.5 101.792L179.478 97.0636L167.019 98.9981L164.441 110.39L170.858 110.143L172.651 105.958V110.075L175.612 109.96L177.33 103.297L178.404 110.39L188.93 110.175L188.5 101.792Z" fill="#2E3341"/>
</svg>
